<svg width="56" height="56" viewBox="0 0 56 56" fill="none" xmlns="http://www.w3.org/2000/svg">
<g clip-path="url(#clip0_27_737)">
<path fill-rule="evenodd" clip-rule="evenodd" d="M28.0001 2.91663C28.9666 2.91663 29.7501 3.70014 29.7501 4.66663V9.33329C29.7501 10.2998 28.9666 11.0833 28.0001 11.0833C27.0336 11.0833 26.2501 10.2998 26.2501 9.33329V4.66663C26.2501 3.70014 27.0336 2.91663 28.0001 2.91663ZM43.2377 12.7622C43.9211 13.4457 43.9211 14.5537 43.2377 15.2371L42.4369 16.0381C41.7535 16.7215 40.6454 16.7215 39.9619 16.0381C39.2785 15.3546 39.2785 14.2466 39.9619 13.5632L40.763 12.7622C41.4464 12.0788 42.5545 12.0788 43.2377 12.7622ZM12.7627 12.7625C13.4461 12.0791 14.5541 12.0791 15.2375 12.7625L16.0385 13.5635C16.7219 14.2469 16.7219 15.3549 16.0385 16.0383C15.3551 16.7217 14.247 16.7217 13.5636 16.0383L12.7627 15.2374C12.0792 14.554 12.0792 13.4459 12.7627 12.7625ZM27.8687 18.3914C27.4576 18.9283 26.9748 19.7852 26.2074 21.1618L25.825 21.8476C25.7967 21.8982 25.7683 21.95 25.7393 22.0025C25.4143 22.5909 25.0291 23.2883 24.3974 23.768C23.7551 24.2554 22.9788 24.4276 22.3413 24.569C22.2846 24.5816 22.2291 24.594 22.1748 24.6061L21.4324 24.7741C19.9381 25.1122 19.0216 25.3248 18.4168 25.563C18.2872 25.6141 18.1952 25.6575 18.1314 25.6916C18.1657 25.7674 18.2226 25.8762 18.3163 26.025C18.6781 26.5997 19.3078 27.3431 20.3235 28.5308L20.8297 29.1228C20.8663 29.1655 20.9038 29.2091 20.9417 29.2532C21.3815 29.7637 21.8934 30.3578 22.1297 31.1175C22.3638 31.8705 22.2853 32.6522 22.2168 33.3342C22.2108 33.3935 22.205 33.4518 22.1994 33.5092L22.1229 34.2988C21.9696 35.8813 21.8774 36.8769 21.9083 37.5708C21.9142 37.7048 21.9243 37.8079 21.9352 37.8863C21.9908 37.8742 22.0581 37.8574 22.1386 37.8343C22.7619 37.6558 23.6239 37.2642 25.0232 36.62L25.7183 36.3001C25.7697 36.2763 25.8222 36.252 25.8756 36.2271C26.4666 35.9517 27.1951 35.6122 28.0001 35.6122C28.8051 35.6122 29.5336 35.9517 30.1246 36.2271C30.178 36.252 30.2305 36.2763 30.2819 36.3001L30.977 36.62C32.3763 37.2642 33.2382 37.6558 33.8617 37.8343C33.9422 37.8574 34.0094 37.8742 34.0651 37.8863C34.0759 37.8079 34.0859 37.7048 34.092 37.5708C34.1228 36.8769 34.0306 35.8813 33.8773 34.2988L33.8008 33.5092C33.7952 33.4518 33.7893 33.3935 33.7835 33.3342C33.7149 32.6522 33.6365 31.8705 33.8705 31.1175C34.1069 30.3578 34.6186 29.7637 35.0584 29.2532C35.0965 29.2091 35.1338 29.1655 35.1704 29.1228L35.6768 28.5308C36.6925 27.3431 37.3222 26.5997 37.6839 26.025C37.7777 25.8762 37.8346 25.7674 37.8687 25.6916C37.805 25.6575 37.7131 25.6141 37.5833 25.563C36.9785 25.3248 36.062 25.1122 34.5677 24.7741L33.8253 24.6061C33.7711 24.594 33.7156 24.5816 33.6589 24.569C33.0214 24.4276 32.2451 24.2554 31.6028 23.768C30.9711 23.2883 30.5859 22.5909 30.2609 22.0025C30.2319 21.9499 30.2035 21.8982 30.1752 21.8476L29.7928 21.1618C29.0254 19.7852 28.5426 18.9283 28.1315 18.3914C28.0818 18.3266 28.0381 18.273 28.0001 18.2288C27.9621 18.273 27.9184 18.3266 27.8687 18.3914ZM37.9994 25.7782C37.9984 25.7784 37.9917 25.773 37.9821 25.7618C37.9956 25.7723 38.0005 25.7779 37.9994 25.7782ZM37.9149 25.5686C37.9154 25.5549 37.9172 25.5472 37.9179 25.5467C37.9189 25.5462 37.9186 25.553 37.9149 25.5686ZM34.014 38.1052C34.0136 38.1047 34.0159 38.0989 34.0213 38.0895C34.0171 38.101 34.0143 38.1056 34.014 38.1052ZM34.2747 37.9171C34.2868 37.9152 34.294 37.9152 34.2945 37.9159C34.295 37.9164 34.2889 37.9173 34.2747 37.9171ZM21.7057 37.9159C21.7062 37.9152 21.7133 37.9152 21.7256 37.9171C21.7113 37.9173 21.7053 37.9164 21.7057 37.9159ZM21.979 38.0895C21.9844 38.0989 21.9865 38.1047 21.9863 38.1052C21.986 38.1056 21.9832 38.101 21.979 38.0895ZM18.0822 25.5467C18.083 25.5472 18.0849 25.5549 18.0854 25.5686C18.0816 25.553 18.0813 25.5462 18.0822 25.5467ZM18.018 25.7618C18.0086 25.773 18.0018 25.7784 18.0008 25.7782C17.9998 25.7779 18.0045 25.7723 18.018 25.7618ZM25.09 16.2634C25.6948 15.4737 26.6085 14.5833 28.0001 14.5833C29.3917 14.5833 30.3054 15.4737 30.9102 16.2634C31.4961 17.0284 32.1023 18.1162 32.7867 19.3441L33.2324 20.1435C33.4552 20.5435 33.5751 20.7559 33.6743 20.905C33.6939 20.9347 33.7095 20.9565 33.721 20.9721C33.7357 20.9774 33.7548 20.984 33.7795 20.9917C33.9391 21.0421 34.1627 21.094 34.5978 21.1925L35.4696 21.3897C36.7928 21.689 37.98 21.9574 38.8667 22.3069C39.8149 22.6806 40.8659 23.3173 41.2709 24.6194C41.6697 25.9023 41.1888 27.0272 40.6458 27.8896C40.1304 28.7084 39.3266 29.6482 38.4201 30.708L37.8304 31.3975C37.5353 31.7426 37.3799 31.9265 37.2751 32.0705C37.2438 32.1134 37.2254 32.1421 37.2151 32.1591C37.2135 32.1804 37.2121 32.2184 37.2133 32.2791C37.217 32.4639 37.2399 32.7121 37.2844 33.1716L37.3731 34.0874C37.5108 35.5051 37.6319 36.7535 37.5885 37.7265C37.5437 38.7312 37.3094 39.9592 36.2272 40.7808C35.1165 41.6238 33.8635 41.4757 32.8975 41.1989C31.9838 40.9371 30.8734 40.4257 29.6348 39.8552L29.5133 39.7992L28.8182 39.4793C28.4108 39.2917 28.2001 39.196 28.0419 39.1386C28.0258 39.1328 28.012 39.1279 28.0001 39.1239C27.9882 39.1279 27.9744 39.1328 27.9583 39.1386C27.8001 39.196 27.5894 39.2917 27.182 39.4793L26.3654 39.8552C25.1268 40.4257 24.0164 40.9371 23.1027 41.1989C22.1366 41.4757 20.8837 41.6238 19.773 40.7808C18.6908 39.9592 18.4565 38.7312 18.4118 37.7265C18.3684 36.7535 18.4895 35.5051 18.627 34.0874L18.7157 33.1716C18.7603 32.7121 18.7831 32.4639 18.7869 32.2791C18.7881 32.2184 18.7866 32.1804 18.785 32.1591C18.7748 32.1421 18.7563 32.1134 18.725 32.0705C18.6204 31.9265 18.465 31.7426 18.1697 31.3975L17.5802 30.7083C16.6736 29.6482 15.8697 28.7084 15.3544 27.8896C14.8114 27.0272 14.3304 25.9023 14.7294 24.6194C15.1342 23.3173 16.1852 22.6806 17.1336 22.3069C18.0202 21.9574 19.2073 21.689 20.5307 21.3897C20.5737 21.38 20.6168 21.3703 20.66 21.3605L21.4024 21.1925C21.8375 21.094 22.061 21.0421 22.2206 20.9917C22.2453 20.984 22.2645 20.9774 22.2791 20.9721C22.2907 20.9565 22.3062 20.9347 22.3259 20.905C22.4251 20.7559 22.5449 20.5435 22.7679 20.1435L23.1502 19.4576C23.1714 19.4197 23.1925 19.3818 23.2135 19.3441C23.8979 18.1162 24.5041 17.0285 25.09 16.2634ZM18.7833 32.1407C18.7827 32.1379 18.7825 32.1365 18.7826 32.1363L18.7833 32.1407ZM33.7473 21.005C33.7485 21.0062 33.7473 21.0051 33.7473 21.005ZM2.91676 28C2.91676 27.0335 3.70027 26.25 4.66676 26.25H9.33343C10.2999 26.25 11.0834 27.0335 11.0834 28C11.0834 28.9664 10.2999 29.75 9.33343 29.75H4.66676C3.70027 29.75 2.91676 28.9664 2.91676 28ZM44.9168 28C44.9168 27.0335 45.7003 26.25 46.6668 26.25H51.3334C52.2999 26.25 53.0834 27.0335 53.0834 28C53.0834 28.9664 52.2999 29.75 51.3334 29.75H46.6668C45.7003 29.75 44.9168 28.9664 44.9168 28ZM16.0382 39.9618C16.7216 40.6452 16.7216 41.7533 16.0382 42.4368L15.2378 43.2371C14.5544 43.9205 13.4463 43.9205 12.7629 43.2371C12.0795 42.5537 12.0795 41.4458 12.7629 40.7624L13.5633 39.9618C14.2468 39.2784 15.3548 39.2784 16.0382 39.9618ZM39.9619 39.9623C40.6454 39.2791 41.7535 39.2791 42.4369 39.9623L43.2372 40.7628C43.9207 41.4463 43.9207 42.5544 43.2372 43.2378C42.5538 43.921 41.4457 43.921 40.7623 43.2378L39.9619 42.4372C39.2785 41.7538 39.2785 40.6457 39.9619 39.9623ZM28.0001 44.9166C28.9666 44.9166 29.7501 45.7002 29.7501 46.6666V51.3333C29.7501 52.2998 28.9666 53.0833 28.0001 53.0833C27.0336 53.0833 26.2501 52.2998 26.2501 51.3333V46.6666C26.2501 45.7002 27.0336 44.9166 28.0001 44.9166Z" fill="#B89A7A"/>
</g>
<defs>
<clipPath id="clip0_27_737">
<rect width="56" height="56" fill="white"/>
</clipPath>
</defs>
</svg>
