<svg width="56" height="56" viewBox="0 0 56 56" fill="none" xmlns="http://www.w3.org/2000/svg">
<path d="M28 25.3333V41.3333M28 41.3333L30.9847 39.3436C31.7337 38.8441 32.1083 38.5945 32.5135 38.4176C32.8732 38.2605 33.25 38.1465 33.6365 38.0776C34.0717 38 34.5218 38 35.4222 38H40.3333C41.2668 38 41.7335 38 42.09 37.8183C42.4037 37.6585 42.6585 37.4036 42.8183 37.09C43 36.7335 43 36.2668 43 35.3333V17.3333C43 16.3999 43 15.9332 42.8183 15.5766C42.6585 15.263 42.4037 15.0081 42.09 14.8483C41.7335 14.6666 41.2668 14.6666 40.3333 14.6666H38.6667C34.933 14.6666 33.0662 14.6666 31.64 15.3932C30.3857 16.0324 29.3658 17.0523 28.7267 18.3067C28 19.7328 28 21.5996 28 25.3333C28 21.5996 28 19.7328 27.2733 18.3067C26.6342 17.0523 25.6143 16.0324 24.3599 15.3932C22.9338 14.6666 21.067 14.6666 17.3333 14.6666H15.6667C14.7332 14.6666 14.2665 14.6666 13.91 14.8483C13.5964 15.0081 13.3414 15.263 13.1816 15.5766C13 15.9332 13 16.3999 13 17.3333V35.3333C13 36.2668 13 36.7335 13.1816 37.09C13.3414 37.4036 13.5964 37.6585 13.91 37.8183C14.2665 38 14.7332 38 15.6667 38H20.5778C21.4781 38 21.9283 38 22.3636 38.0776C22.7499 38.1465 23.1268 38.2605 23.4865 38.4176C23.8917 38.5945 24.2663 38.8441 25.0153 39.3436L28 41.3333Z" stroke="#B89A7A" stroke-width="3.33333" stroke-linecap="round" stroke-linejoin="round"/>
</svg>
