<svg width="56" height="56" viewBox="0 0 56 56" fill="none" xmlns="http://www.w3.org/2000/svg">
<g clip-path="url(#clip0_27_743)">
<path d="M35 16.3334C35 20.1994 31.8661 23.3334 28 23.3334C24.1339 23.3334 21 20.1994 21 16.3334C21 12.4674 24.1339 9.33337 28 9.33337C31.8661 9.33337 35 12.4674 35 16.3334Z" stroke="#B89A7A" stroke-width="3.5" stroke-linecap="round" stroke-linejoin="round"/>
<path d="M23.3333 37.3334C23.3333 41.1995 20.1992 44.3334 16.3333 44.3334C12.4673 44.3334 9.33325 41.1995 9.33325 37.3334C9.33325 33.4673 12.4673 30.3334 16.3333 30.3334C20.1992 30.3334 23.3333 33.4673 23.3333 37.3334Z" stroke="#B89A7A" stroke-width="3.5" stroke-linecap="round" stroke-linejoin="round"/>
<path d="M46.6667 37.3334C46.6667 41.1995 43.5328 44.3334 39.6667 44.3334C35.8006 44.3334 32.6667 41.1995 32.6667 37.3334C32.6667 33.4673 35.8006 30.3334 39.6667 30.3334C43.5328 30.3334 46.6667 33.4673 46.6667 37.3334Z" stroke="#B89A7A" stroke-width="3.5" stroke-linecap="round" stroke-linejoin="round"/>
</g>
<defs>
<clipPath id="clip0_27_743">
<rect width="56" height="56" fill="white"/>
</clipPath>
</defs>
</svg>
