<svg width="56" height="56" viewBox="0 0 56 56" fill="none" xmlns="http://www.w3.org/2000/svg">
<g clip-path="url(#clip0_27_722)">
<path fill-rule="evenodd" clip-rule="evenodd" d="M42.2604 36.584L42.2739 23.6076L33.0384 14.4012C30.2511 11.6264 25.7454 11.6264 22.9584 14.4012L13.743 23.5852V36.5772C13.7504 40.5067 16.9412 43.6863 20.8707 43.6803H35.1328C39.0595 43.6866 42.2492 40.5107 42.2604 36.584Z" stroke="#B89A7A" stroke-width="3.36" stroke-linecap="round" stroke-linejoin="round"/>
<path d="M43.9578 14.6007C43.9578 13.6728 43.2056 12.9207 42.2778 12.9207C41.35 12.9207 40.5978 13.6728 40.5978 14.6007H43.9578ZM42.2778 23.6078H40.5978C40.5978 24.0542 40.7754 24.4823 41.0917 24.7974L42.2778 23.6078ZM44.734 28.4285C45.3909 29.0837 46.4547 29.0819 47.1097 28.4249C47.7649 27.7677 47.7633 26.7041 47.1061 26.0489L44.734 28.4285ZM14.9308 24.775C15.5879 24.12 15.5895 23.0562 14.9344 22.3992C14.2794 21.7421 13.2156 21.7405 12.5585 22.3955L14.9308 24.775ZM8.8939 26.0489C8.23682 26.7041 8.23519 27.7677 8.89028 28.4249C9.54534 29.0819 10.6091 29.0837 11.2662 28.4285L8.8939 26.0489ZM30.8 43.6804C30.8 44.6082 31.5522 45.3604 32.48 45.3604C33.4078 45.3604 34.16 44.6082 34.16 43.6804H30.8ZM21.84 43.6804C21.84 44.6082 22.5922 45.3604 23.52 45.3604C24.4478 45.3604 25.2 44.6082 25.2 43.6804H21.84ZM40.5978 14.6007V23.6078H43.9578V14.6007H40.5978ZM41.0917 24.7974L44.734 28.4285L47.1061 26.0489L43.4639 22.4179L41.0917 24.7974ZM12.5585 22.3955L8.8939 26.0489L11.2662 28.4285L14.9308 24.775L12.5585 22.3955ZM34.16 43.6804V39.6932H30.8V43.6804H34.16ZM34.16 39.6932C34.16 36.2911 31.4021 33.5332 28 33.5332V36.8932C29.5465 36.8932 30.8 38.1467 30.8 39.6932H34.16ZM28 33.5332C24.5979 33.5332 21.84 36.2911 21.84 39.6932H25.2C25.2 38.1467 26.4535 36.8932 28 36.8932V33.5332ZM21.84 39.6932V43.6804H25.2V39.6932H21.84Z" fill="#B89A7A"/>
</g>
<defs>
<clipPath id="clip0_27_722">
<rect width="56" height="56" fill="white"/>
</clipPath>
</defs>
</svg>
