<svg width="56" height="56" viewBox="0 0 56 56" fill="none" xmlns="http://www.w3.org/2000/svg">
<g clip-path="url(#clip0_27_729)">
<path d="M32.2419 10.6052L31.7976 9.98302C29.9363 7.37741 26.0639 7.37741 24.2026 9.98302L23.7583 10.6052C22.7756 11.981 21.1257 12.7176 19.4455 12.5309L17.4644 12.3108C14.4921 11.9806 11.9807 14.492 12.3109 17.4643L12.531 19.4453C12.7178 21.1256 11.9811 22.7754 10.6054 23.7582L9.98314 24.2025C7.37753 26.0638 7.37753 29.9362 9.98314 31.7975L10.6054 32.2417C11.9811 33.2245 12.7178 34.8744 12.531 36.5547L12.3109 38.5357C11.9807 41.5079 14.4921 44.0195 17.4644 43.6891L19.4455 43.469C21.1257 43.2824 22.7756 44.019 23.7583 45.3947L24.2026 46.0168C26.0639 48.6224 29.9363 48.6224 31.7976 46.0168L32.2419 45.3947C33.2247 44.019 34.8746 43.2824 36.5548 43.469L38.5358 43.6891C41.508 44.0195 44.0196 41.5079 43.6892 38.5357L43.4692 36.5547C43.2825 34.8744 44.0191 33.2245 45.3949 32.2417L46.0169 31.7975C48.6226 29.9362 48.6226 26.0638 46.0169 24.2025L45.3949 23.7582C44.0191 22.7754 43.2825 21.1256 43.4692 19.4453L43.6892 17.4643C44.0196 14.492 41.508 11.9806 38.5358 12.3108L36.5548 12.5309C34.8746 12.7176 33.2247 11.981 32.2419 10.6052Z" stroke="#B89A7A" stroke-width="3.5" stroke-linecap="round" stroke-linejoin="round"/>
<path d="M21 28L25.2441 32.2441C25.4774 32.4775 25.8559 32.4775 26.0892 32.2441L35 23.3334" stroke="#B89A7A" stroke-width="3.5" stroke-linecap="round" stroke-linejoin="round"/>
</g>
<defs>
<clipPath id="clip0_27_729">
<rect width="56" height="56" fill="white"/>
</clipPath>
</defs>
</svg>
